<svg width="24" height="24" viewBox="0 0 24 24" fill="none" xmlns="http://www.w3.org/2000/svg">
<g clip-path="url(#clip0_181_57264)">
<path d="M9.86304 0.560547L9.74048 0.634679C9.54554 0.752607 9.36188 0.88446 9.1905 1.02853L9.54401 0.779874H12.5444L13.0898 4.91007L10.3626 7.63734L7.6353 9.53301V11.7189C7.6353 13.2456 8.43324 14.6614 9.73934 15.452L12.6104 17.1898L6.54439 20.7284H5.37444L3.19386 19.4085C1.88777 18.6179 1.08984 17.2022 1.08984 15.6754V8.32494C1.08984 6.79772 1.88827 5.38161 3.19504 4.59119L9.74048 0.631996C9.78106 0.607461 9.82192 0.583647 9.86304 0.560547Z" fill="url(#paint0_radial_181_57264)"/>
<path d="M9.86304 0.560547L9.74048 0.634679C9.54554 0.752607 9.36188 0.88446 9.1905 1.02853L9.54401 0.779874H12.5444L13.0898 4.91007L10.3626 7.63734L7.6353 9.53301V11.7189C7.6353 13.2456 8.43324 14.6614 9.73934 15.452L12.6104 17.1898L6.54439 20.7284H5.37444L3.19386 19.4085C1.88777 18.6179 1.08984 17.2022 1.08984 15.6754V8.32494C1.08984 6.79772 1.88827 5.38161 3.19504 4.59119L9.74048 0.631996C9.78106 0.607461 9.82192 0.583647 9.86304 0.560547Z" fill="url(#paint1_linear_181_57264)"/>
<path d="M16.3627 9.27344V11.7172C16.3627 13.244 15.5648 14.6597 14.2587 15.4503L7.71321 19.4122C6.37423 20.2227 4.70825 20.252 3.3457 19.5L9.73941 23.3702C11.1285 24.211 12.8696 24.211 14.2587 23.3702L20.8041 19.4081C22.1102 18.6176 22.9081 17.2018 22.9081 15.6751V13.9098L22.3626 13.0916L16.3627 9.27344Z" fill="url(#paint2_radial_181_57264)"/>
<path d="M16.3627 9.27344V11.7172C16.3627 13.244 15.5648 14.6597 14.2587 15.4503L7.71321 19.4122C6.37423 20.2227 4.70825 20.252 3.3457 19.5L9.73941 23.3702C11.1285 24.211 12.8696 24.211 14.2587 23.3702L20.8041 19.4081C22.1102 18.6176 22.9081 17.2018 22.9081 15.6751V13.9098L22.3626 13.0916L16.3627 9.27344Z" fill="url(#paint3_linear_181_57264)"/>
<path d="M20.8023 4.59105L14.2569 0.631859C12.9114 -0.181998 11.2359 -0.207209 9.86998 0.556221L9.73995 0.634875C8.4332 1.4253 7.63477 2.84138 7.63477 4.36861V9.54165L9.73995 8.26823C11.1285 7.4284 12.8683 7.4284 14.2569 8.26823L20.8023 12.2274C22.0682 12.9932 22.8571 14.346 22.9051 15.8183C22.9067 15.7707 22.9075 15.7231 22.9075 15.6753V8.3248C22.9075 6.79758 22.1091 5.38147 20.8023 4.59105Z" fill="url(#paint4_radial_181_57264)"/>
<path d="M20.8023 4.59105L14.2569 0.631859C12.9114 -0.181998 11.2359 -0.207209 9.86998 0.556221L9.73995 0.634875C8.4332 1.4253 7.63477 2.84138 7.63477 4.36861V9.54165L9.73995 8.26823C11.1285 7.4284 12.8683 7.4284 14.2569 8.26823L20.8023 12.2274C22.0682 12.9932 22.8571 14.346 22.9051 15.8183C22.9067 15.7707 22.9075 15.7231 22.9075 15.6753V8.3248C22.9075 6.79758 22.1091 5.38147 20.8023 4.59105Z" fill="url(#paint5_linear_181_57264)"/>
</g>
<defs>
<radialGradient id="paint0_radial_181_57264" cx="0" cy="0" r="1" gradientUnits="userSpaceOnUse" gradientTransform="translate(8.40908 4.71278) rotate(110.528) scale(18.1995 31.7436)">
<stop offset="0.06441" stop-color="#AE7FE2"/>
<stop offset="1" stop-color="#0078D4"/>
</radialGradient>
<linearGradient id="paint1_linear_181_57264" x1="1.08966" y1="20.7282" x2="18.8146" y2="10.1818" gradientUnits="userSpaceOnUse">
<stop stop-color="#0077FF"/>
<stop offset="1" stop-color="#85D3FF"/>
</linearGradient>
<radialGradient id="paint2_radial_181_57264" cx="0" cy="0" r="1" gradientUnits="userSpaceOnUse" gradientTransform="translate(4.59719 18.7377) rotate(-8.36717) scale(16.9365 11.1877)">
<stop offset="0.133928" stop-color="#D59DFF"/>
<stop offset="1" stop-color="#5E438F"/>
</radialGradient>
<linearGradient id="paint3_linear_181_57264" x1="3.3454" y1="24.0007" x2="17.4986" y2="5.20093" gradientUnits="userSpaceOnUse">
<stop stop-color="#0077FF"/>
<stop offset="1" stop-color="#85D3FF"/>
</linearGradient>
<radialGradient id="paint4_radial_181_57264" cx="0" cy="0" r="1" gradientUnits="userSpaceOnUse" gradientTransform="translate(21.3012 13.3667) rotate(-165.772) scale(13.5943 22.8847)">
<stop offset="0.0584996" stop-color="#50E6FF"/>
<stop offset="1" stop-color="#436DCD"/>
</radialGradient>
<linearGradient id="paint5_linear_181_57264" x1="7.63453" y1="15.8182" x2="23.4412" y2="0.554669" gradientUnits="userSpaceOnUse">
<stop stop-color="#0077FF"/>
<stop offset="1" stop-color="#85D3FF"/>
</linearGradient>
<clipPath id="clip0_181_57264">
<rect width="24" height="24" fill="white"/>
</clipPath>
</defs>
</svg>
